<svg width="113" height="34" viewBox="0 0 113 34" fill="none" xmlns="http://www.w3.org/2000/svg">
<path d="M24.3075 18.728C24.3075 20.7686 23.5809 22.5131 22.1277 23.9613C19.2709 26.8083 16.4141 29.6554 13.5574 32.5024C11.5758 34.4772 8.47128 34.4937 6.53924 32.5518C4.59068 30.6099 4.6237 27.5489 6.6218 25.5576C9.72629 22.4472 12.8473 19.3533 15.9518 16.2594C17.3884 14.8112 17.438 13.7909 16.1334 12.211C16.0178 12.0629 15.9848 11.8325 15.9022 11.635C16.1169 11.5528 16.3481 11.4211 16.5793 11.4046C20.7736 11.1413 24.3075 14.4985 24.3075 18.728Z" fill="black"/>
<path d="M7.4146 21.8053C4.14498 21.6078 1.88267 20.1431 0.611152 17.2961C-0.594313 14.5971 0.0331895 11.4209 2.11386 9.31445C4.72295 6.68135 7.34855 4.0647 9.99066 1.4645C11.9723 -0.493872 15.0272 -0.477415 16.9592 1.43159C18.8748 3.34059 18.9078 6.40158 16.9592 8.37641C14.7795 10.631 12.5337 12.8198 10.3209 15.025C9.54481 15.7985 8.75217 16.5555 7.99256 17.3619C7.08434 18.2999 7.05131 19.6165 7.82743 20.571C8.05862 20.8672 8.22375 21.2293 8.4054 21.5584C8.0421 21.6407 7.64579 21.7394 7.4146 21.8053Z" fill="black"/>
<path d="M48.103 9.79186C49.4406 9.79186 50.7121 9.79186 52.0497 9.79186C52.0992 10.2197 52.1322 10.6476 52.1653 10.9932C53.1561 10.516 54.0808 9.89061 55.1211 9.59438C59.6623 8.34365 64.0548 11.4705 64.5832 16.243C64.8474 18.6786 64.4346 20.9497 62.9319 22.9245C60.521 26.1171 56.0294 26.7589 52.7928 24.4056C52.6276 24.274 52.446 24.1588 52.1488 23.9448C52.1488 26.6767 52.1488 29.2604 52.1488 31.91C50.7616 31.91 49.4571 31.91 48.103 31.91C48.103 24.5373 48.103 17.181 48.103 9.79186ZM52.1322 17.5595C52.1322 20.1762 53.9817 22.0852 56.4422 22.0687C58.8862 22.0523 60.6366 20.1597 60.6366 17.5431C60.6366 14.9264 58.8697 13.0339 56.4257 13.0339C53.9487 13.0174 52.1157 14.9593 52.1322 17.5595Z" fill="black"/>
<path d="M113 18.7609C109.07 18.7609 105.222 18.7609 101.309 18.7609C101.672 20.4066 102.514 21.5257 104.033 22.0687C105.998 22.7764 107.765 22.1839 109.978 20.0445C110.705 20.8838 111.448 21.7231 112.24 22.6283C111.151 24.0765 109.598 25.1297 107.617 25.5905C102.943 26.6438 98.8647 24.241 97.7253 19.7319C96.4868 14.8935 99.2775 10.335 104.017 9.46273C108.822 8.57406 112.967 11.9806 113.016 16.8354C113.016 17.4279 113 18.0368 113 18.7609ZM109.152 15.667C109.119 14.1036 107.699 12.8858 105.817 12.7541C103.786 12.6225 101.87 13.939 101.606 15.667C104.116 15.667 106.626 15.667 109.152 15.667Z" fill="black"/>
<path d="M35.3383 19.9952C36.5438 21.6573 38.0299 22.4966 39.9455 22.3649C40.5234 22.332 41.1509 22.1181 41.6298 21.8054C42.3729 21.2952 42.3069 20.3407 41.4977 19.9293C40.7711 19.5673 39.9455 19.3862 39.1859 19.09C38.0134 18.6457 36.7584 18.3001 35.7016 17.6747C33.4558 16.3417 33.043 13.3466 34.7108 11.3224C37.1052 8.39302 43.083 8.73862 45.0481 11.7831C44.2719 12.6389 43.5123 13.4618 42.7362 14.3011C41.828 13.2314 40.7381 12.5566 39.2849 12.6883C38.8886 12.7212 38.4593 12.8364 38.1125 13.0174C37.2703 13.4618 37.2703 14.3998 38.129 14.7948C38.8886 15.1568 39.7308 15.3378 40.54 15.6176C41.4482 15.9303 42.3729 16.2101 43.2481 16.5886C44.8499 17.2962 45.8572 18.4976 45.9233 20.3078C46.0058 22.2168 45.2792 23.7638 43.6279 24.7512C41.2335 26.183 38.707 26.1007 36.1805 25.0968C34.6613 24.5043 33.5714 23.5169 33.0264 22.4308C33.142 22.2991 33.2741 22.151 33.4062 22.0194C34.0007 21.3775 34.6282 20.7193 35.3383 19.9952Z" fill="black"/>
<path d="M96.5363 22.4637C93.9272 25.607 90.1622 26.6108 86.6284 25.2449C83.3753 23.9942 81.3937 20.7357 81.6249 17.0494C81.8561 13.3795 84.1019 10.4995 87.4375 9.59438C90.8888 8.65634 94.6208 9.90706 96.3216 12.4908C95.496 13.3301 94.7033 14.1365 93.8942 14.9593C91.3181 12.6883 88.5769 12.4908 86.81 14.4327C85.2082 16.1936 85.3238 19.3533 87.0577 20.9497C88.9237 22.6776 91.731 22.3485 94.0428 19.9952C94.4226 20.4395 94.7859 20.9167 95.1987 21.3282C95.6281 21.7231 96.0905 22.0687 96.5363 22.4637Z" fill="black"/>
<path d="M67.374 3.7028C68.7776 3.7028 70.0821 3.7028 71.4527 3.7028C71.4527 10.9109 71.4527 18.0697 71.4527 25.2943C70.0986 25.2943 68.7776 25.2943 67.374 25.2943C67.374 18.1191 67.374 10.9274 67.374 3.7028Z" fill="black"/>
<path d="M78.9332 25.3272C77.5626 25.3272 76.2746 25.3272 74.9205 25.3272C74.9205 20.1597 74.9205 15.0252 74.9205 9.80832C76.225 9.80832 77.5626 9.80832 78.9332 9.80832C78.9332 14.9758 78.9332 20.1104 78.9332 25.3272Z" fill="black"/>
<path d="M74.4581 5.4637C74.4746 4.08132 75.5315 2.99516 76.9021 2.99516C78.2892 2.97871 79.4451 4.11423 79.4617 5.48016C79.4782 6.84608 78.3388 7.98161 76.9351 7.99807C75.515 7.99807 74.4416 6.89546 74.4581 5.4637Z" fill="black"/>
</svg>
